<svg width="68" height="68" viewBox="0 0 68 68" fill="none" xmlns="http://www.w3.org/2000/svg">
    <rect width="68" height="68" rx="34" fill="white"/>
    <path d="M30.7234 0.0850981C20.0984 1.18744 10.7883 6.96479 5.13045 15.9695C-2.89142 28.7328 -1.37736 45.6796 8.76951 56.7164C14.414 62.8523 21.4 66.5046 29.7937 67.7C31.3742 67.9257 36.5937 67.9125 38.2273 67.6867C46.4883 66.5445 53.4742 62.9054 59.1055 56.796C63.7406 51.7757 66.7023 45.3609 67.7383 38.1226C67.964 36.5554 67.964 31.3226 67.7383 29.7554C66.9547 24.2304 65.2015 19.5421 62.293 15.1593C61.0711 13.2999 59.8359 11.7859 58.1094 10.046C52.8101 4.68041 46.2492 1.37338 38.6922 0.257754C37.0586 0.0186918 32.3437 -0.0875582 30.7234 0.0850981ZM38.0945 19.7679C40.7773 20.4851 43.0617 21.7601 44.8547 23.5531C46.0765 24.7749 46.8336 25.8507 47.6039 27.4843C48.6531 29.7023 49.1445 32.5578 48.9054 34.9351V34.9351C48.8375 35.6144 48.2673 36.1324 47.5847 36.1351L38.5726 36.1703L28.831 36.1956C28.5843 36.1962 28.3974 36.4185 28.439 36.6617V36.6617C28.5586 37.4187 29.289 38.7999 29.9133 39.4242C31.2281 40.7789 33.3664 41.2835 35.5578 40.7789C36.7265 40.4999 37.6297 39.982 38.3469 39.1585V39.1585C38.7349 38.7114 39.2978 38.4546 39.8898 38.4546H43.6461H48.0277C48.1795 38.4546 48.2874 38.6022 48.2414 38.7468V38.7468C47.5109 41.1507 45.5453 43.9132 43.3804 45.5867C41.6804 46.8882 39.2633 47.9109 36.8461 48.3492C35.1195 48.6546 31.6133 48.5749 30.1258 48.1765C27.9344 47.5921 26.3273 46.8351 24.7469 45.6664C21.4531 43.2226 19.5008 39.6765 19.0758 35.3734C18.4648 29.2507 21.4797 23.5664 26.7523 20.9367C29.3156 19.6617 31.0023 19.3164 34.3758 19.3828C36.4875 19.4226 37.0054 19.4757 38.0945 19.7679Z" fill="#3B41E3"/>
    <path d="M33.0742 26.7937C31.0023 27.0195 29.2359 28.5203 28.6117 30.5788V30.5788C28.5654 30.7308 28.6792 30.8843 28.838 30.8843H34.0305C37.975 30.8843 39.5555 30.8445 39.5555 30.7382C39.5555 30.6585 39.343 30.1804 39.0773 29.6757C37.9351 27.5109 35.8101 26.4882 33.0742 26.7937Z" fill="#3B41E3"/>
</svg>

