<svg width="510" height="291" viewBox="0 0 510 291" fill="none" xmlns="http://www.w3.org/2000/svg">
    <path opacity="0.49" d="M392.016 104.37C288.127 104.716 224.76 59.6764 175.33 51.0102C101.058 37.9976 3.10428 71.6725 66.2742 164.833C129.444 257.993 162.181 281.687 275.922 289.635C366.976 295.996 447.184 259.544 479.093 230.452C529.114 184.938 495.944 104.024 392.016 104.37Z" fill="url(#paint0_linear_2106_352)"/>
    <path d="M399.728 134.431L349.057 125.117C353.345 108.98 361.499 96.634 373.522 88.0789C385.546 79.5287 402.534 75.3031 424.487 75.4022C449.685 75.5099 467.885 80.2933 479.086 89.7333C490.282 99.1832 495.849 111.017 495.786 125.238C495.749 133.585 493.431 141.125 488.836 147.863C484.242 154.605 477.325 160.506 468.079 165.555C475.536 167.432 481.234 169.605 485.176 172.083C491.568 176.063 496.528 181.287 500.057 187.76C503.58 194.228 505.326 201.94 505.284 210.897C505.234 222.138 502.247 232.902 496.319 243.189C490.392 253.481 481.885 261.391 470.794 266.92C459.707 272.449 445.156 275.168 427.16 275.09C409.592 275.011 395.755 272.883 385.63 268.718C375.504 264.542 367.187 258.472 360.684 250.496C354.181 242.52 349.193 232.507 345.741 220.468L399.376 213.588C401.434 224.398 404.67 231.9 409.086 236.09C413.503 240.28 419.135 242.391 425.986 242.416C433.184 242.451 439.192 239.839 444.001 234.596C448.806 229.352 451.233 222.338 451.273 213.55C451.31 204.602 449.036 197.652 444.447 192.715C439.858 187.778 433.618 185.292 425.714 185.258C421.497 185.236 415.696 186.262 408.314 188.335L411.244 150.025C414.231 150.475 416.554 150.701 418.223 150.714C425.247 150.742 431.12 148.529 435.84 144.071C440.556 139.617 442.93 134.313 442.957 128.168C442.983 122.283 441.245 117.579 437.749 114.051C434.254 110.527 429.433 108.744 423.284 108.718C416.962 108.689 411.816 110.577 407.848 114.383C403.879 118.178 401.174 124.866 399.728 134.431Z" fill="#08448B"/>
    <path d="M16 236.322V200.572L97.8789 83.4765H147.369V197.981H168.616V236.322H147.369V270H103.061V236.322H16ZM106.17 132.18L62.6399 197.981H106.17V132.18Z" fill="#08448B"/>
    <path d="M190.319 172.852C190.319 143.147 196.019 119.745 207.42 102.647C218.993 85.549 237.563 77 263.129 77C288.694 77 307.177 85.549 318.578 102.647C330.152 119.745 335.939 143.147 335.939 172.852C335.939 202.903 330.152 226.478 318.578 243.576C307.177 260.674 288.694 269.223 263.129 269.223C237.563 269.223 218.993 260.674 207.42 243.576C196.019 226.478 190.319 202.903 190.319 172.852ZM292.408 172.852C292.408 155.409 290.508 142.024 286.708 132.698C282.907 123.199 275.048 118.45 263.129 118.45C251.209 118.45 243.35 123.199 239.549 132.698C235.749 142.024 233.849 155.409 233.849 172.852C233.849 184.596 234.54 194.354 235.922 202.126C237.304 209.725 240.068 215.943 244.213 220.779C248.532 225.442 254.837 227.773 263.129 227.773C271.42 227.773 277.639 225.442 281.785 220.779C286.103 215.943 288.953 209.725 290.335 202.126C291.717 194.354 292.408 184.596 292.408 172.852Z" fill="#08448B"/>
    <path d="M485.563 0H445.13C443.664 0 442.259 0.577814 441.223 1.60632C440.186 2.63482 439.604 4.02978 439.604 5.4843V30.177C439.604 31.6315 440.186 33.0265 441.223 34.055C442.259 35.0835 443.664 35.6613 445.13 35.6613H453.944L462.26 46.9509H465.347L476.722 35.6613H485.563C487.029 35.6613 488.434 35.0835 489.471 34.055C490.507 33.0265 491.089 31.6315 491.089 30.177V5.47091C491.086 4.0187 490.502 2.6272 489.466 1.60158C488.43 0.57597 487.026 -4.31946e-06 485.563 0V0Z" fill="url(#paint1_linear_2106_352)"/>
    <path d="M482.443 0H441.967C440.5 0 439.093 0.577814 438.056 1.60632C437.019 2.63482 436.436 4.02978 436.436 5.4843V30.177C436.436 31.6315 437.019 33.0265 438.056 34.055C439.093 35.0835 440.5 35.6613 441.967 35.6613H450.791L462.178 46.9509L473.565 35.6613H482.389C483.856 35.6613 485.263 35.0835 486.301 34.055C487.338 33.0265 487.921 31.6315 487.921 30.177V5.47091C487.917 4.02793 487.34 2.64446 486.315 1.62036C485.29 0.596265 483.899 0.0140738 482.443 0Z" fill="url(#paint2_linear_2106_352)"/>
    <path d="M463.366 49.7724C463.366 49.7724 429.389 68.4318 409.344 61.8911C389.299 55.3504 406.047 42.2559 417.418 42.2559C428.788 42.2559 435.408 79.0341 435.408 79.0341" stroke="#222222" stroke-width="0.5" stroke-linecap="round" stroke-linejoin="round" stroke-dasharray="3 3"/>
    <path d="M415.842 67.2962C418.466 67.2962 420.594 65.019 420.594 62.2099C420.594 59.4008 418.466 57.1235 415.842 57.1235C413.217 57.1235 411.089 59.4008 411.089 62.2099C411.089 65.019 413.217 67.2962 415.842 67.2962Z" fill="#FFD46A"/>
    <path d="M5.52584 22.6377H45.9592C47.4248 22.6377 48.8303 23.2155 49.8666 24.244C50.9029 25.2725 51.4851 26.6675 51.4851 28.122V52.8147C51.4851 54.2692 50.9029 55.6642 49.8666 56.6927C48.8303 57.7212 47.4248 58.299 45.9592 58.299H37.1447L28.8289 69.5886H25.7425L14.3673 58.299H5.52584C4.06028 58.299 2.65475 57.7212 1.61844 56.6927C0.582138 55.6642 -5.90816e-05 54.2692 -5.90816e-05 52.8147V28.1086C0.00350976 26.6564 0.587295 25.2649 1.62321 24.2393C2.65913 23.2137 4.06262 22.6377 5.52584 22.6377V22.6377Z" fill="url(#paint3_linear_2106_352)"/>
    <path d="M8.64604 22.6377H49.1218C50.5888 22.6377 51.9959 23.2155 53.0332 24.244C54.0706 25.2725 54.6534 26.6675 54.6534 28.122V52.8147C54.6534 54.2692 54.0706 55.6642 53.0332 56.6927C51.9959 57.7212 50.5888 58.299 49.1218 58.299H40.298L28.9109 69.5886L17.5237 58.299H8.70002C7.23293 58.299 5.82592 57.7212 4.78853 56.6927C3.75114 55.6642 3.16833 54.2692 3.16833 52.8147V28.1086C3.17181 26.6656 3.74875 25.2822 4.77412 24.2581C5.79949 23.234 7.19066 22.6518 8.64604 22.6377Z" fill="url(#paint4_linear_2106_352)"/>
    <path d="M37 89.6128L36.9539 89.3671L37 89.6128ZM28.2501 76.6214C28.2659 77.0773 28.2971 77.5725 28.346 78.0947L28.8439 78.0481C28.7958 77.5353 28.7652 77.0499 28.7499 76.6042L28.2501 76.6214ZM28.7756 81.0123C28.9684 81.9646 29.2197 82.9345 29.5397 83.8673L30.0126 83.705C29.7009 82.7963 29.4549 81.8479 29.2657 80.9131L28.7756 81.0123ZM30.7608 86.5754C31.2965 87.4793 31.9385 88.271 32.7048 88.8623L33.0102 88.4665C32.3069 87.9238 31.7038 87.186 31.191 86.3205L30.7608 86.5754ZM35.5241 89.9546C36.005 89.9884 36.5121 89.9586 37.0461 89.8585L36.9539 89.3671C36.4589 89.4599 35.9947 89.4865 35.5592 89.4558L35.5241 89.9546ZM37.0461 89.8585C37.6776 89.7401 38.2172 89.5826 38.6731 89.3924L38.4807 88.931C38.0629 89.1052 37.5579 89.2538 36.9539 89.3671L37.0461 89.8585ZM40.7175 86.7599C40.6749 85.6722 39.9325 84.5906 38.9851 83.8516L38.6776 84.2458C39.56 84.9341 40.1831 85.8932 40.2179 86.7795L40.7175 86.7599ZM35.7296 82.9289C35.1712 83.0708 34.6703 83.4067 34.292 83.9741L34.708 84.2515C35.019 83.7851 35.4165 83.5243 35.8527 83.4135L35.7296 82.9289ZM34.292 83.9741C34.0403 84.3516 33.8327 84.753 33.6675 85.1731L34.1328 85.356C34.2854 84.9679 34.4767 84.5983 34.708 84.2515L34.292 83.9741ZM33.1743 87.8051C33.1642 88.6657 33.2839 89.5552 33.5234 90.4443L34.0062 90.3142C33.7775 89.4652 33.6647 88.6215 33.6743 87.811L33.1743 87.8051ZM34.4997 92.9106C34.9011 93.673 35.3895 94.4155 35.9589 95.1186L36.3474 94.804C35.7983 94.1259 35.3281 93.4106 34.9421 92.6776L34.4997 92.9106ZM37.8081 97.0089C38.1415 97.2916 38.4912 97.5618 38.8566 97.8176L39.1434 97.408C38.7907 97.1611 38.4532 96.9003 38.1315 96.6275L37.8081 97.0089ZM38.8566 97.8176C39.2545 98.0961 39.7258 98.3138 40.2512 98.4868L40.4076 98.0119C39.9144 97.8495 39.4906 97.6511 39.1434 97.408L38.8566 97.8176ZM43.217 99.0493C44.1474 99.145 45.1517 99.2025 46.1919 99.2537L46.2166 98.7543C45.1771 98.7031 44.1843 98.6461 43.2682 98.5519L43.217 99.0493ZM49.155 99.4056C50.1382 99.4666 51.1267 99.5466 52.0967 99.669L52.1594 99.173C51.1749 99.0487 50.1749 98.9679 49.1859 98.9066L49.155 99.4056ZM54.9837 100.202C55.9567 100.453 56.8751 100.779 57.7102 101.209L57.9388 100.764C57.0634 100.314 56.1085 99.9755 55.1085 99.7177L54.9837 100.202ZM60.0142 102.916C60.6361 103.58 61.1513 104.376 61.5298 105.334L61.9948 105.15C61.5934 104.135 61.0446 103.285 60.3793 102.574L60.0142 102.916ZM62.1807 108.149C62.2263 108.611 62.25 109.098 62.25 109.613H62.75C62.75 109.083 62.7256 108.579 62.6783 108.1L62.1807 108.149Z" fill="black"/>
    <path d="M44.7525 99.9891C42.1278 99.9891 40.0001 97.7118 40.0001 94.9027C40.0001 92.0936 42.1278 89.8164 44.7525 89.8164C47.3772 89.8164 49.505 92.0936 49.505 94.9027C49.505 97.7118 47.3772 99.9891 44.7525 99.9891Z" fill="#FFD46A"/>
    <defs>
        <linearGradient id="paint0_linear_2106_352" x1="107.712" y1="138.626" x2="536.8" y2="454.926" gradientUnits="userSpaceOnUse">
            <stop stop-color="white"/>
            <stop offset="1" stop-color="#C0D4F4"/>
        </linearGradient>
        <linearGradient id="paint1_linear_2106_352" x1="14282.9" y1="7208.84" x2="16248.6" y2="7208.84" gradientUnits="userSpaceOnUse">
            <stop stop-color="#223762"/>
            <stop offset="1" stop-color="#041B48"/>
        </linearGradient>
        <linearGradient id="paint2_linear_2106_352" x1="14163.4" y1="7208.84" x2="16128.6" y2="7208.84" gradientUnits="userSpaceOnUse">
            <stop stop-color="#4C93F4"/>
            <stop offset="1" stop-color="#0B63DA"/>
        </linearGradient>
        <linearGradient id="paint3_linear_2106_352" x1="-13791.8" y1="7231.48" x2="-15757.6" y2="7231.48" gradientUnits="userSpaceOnUse">
            <stop stop-color="#223762"/>
            <stop offset="1" stop-color="#041B48"/>
        </linearGradient>
        <linearGradient id="paint4_linear_2106_352" x1="-13672.3" y1="7231.48" x2="-15637.5" y2="7231.48" gradientUnits="userSpaceOnUse">
            <stop stop-color="#4C93F4"/>
            <stop offset="1" stop-color="#0B63DA"/>
        </linearGradient>
    </defs>
</svg>
