<svg width="225px" viewBox="0 0 325 68" fill="none" xmlns="http://www.w3.org/2000/svg">
    <path d="M90.4 44.808L97.12 24.408H104.272L94.432 51H86.272L76.48 24.408H83.68L90.4 44.808ZM139.966 37.128C139.966 38.088 139.902 38.952 139.774 39.72H120.334C120.494 41.64 121.166 43.144 122.35 44.232C123.534 45.32 124.99 45.864 126.718 45.864C129.214 45.864 130.99 44.792 132.046 42.648H139.294C138.526 45.208 137.054 47.32 134.878 48.984C132.702 50.616 130.03 51.432 126.862 51.432C124.302 51.432 121.998 50.872 119.95 49.752C117.934 48.6 116.35 46.984 115.198 44.904C114.078 42.824 113.518 40.424 113.518 37.704C113.518 34.952 114.078 32.536 115.198 30.456C116.318 28.376 117.886 26.776 119.902 25.656C121.918 24.536 124.238 23.976 126.862 23.976C129.39 23.976 131.646 24.52 133.63 25.608C135.646 26.696 137.198 28.248 138.286 30.264C139.406 32.248 139.966 34.536 139.966 37.128ZM133.006 35.208C132.974 33.48 132.35 32.104 131.134 31.08C129.918 30.024 128.43 29.496 126.67 29.496C125.006 29.496 123.598 30.008 122.446 31.032C121.326 32.024 120.638 33.416 120.382 35.208H133.006ZM166.807 24.024C169.975 24.024 172.535 25.032 174.487 27.048C176.439 29.032 177.415 31.816 177.415 35.4V51H170.695V36.312C170.695 34.2 170.167 32.584 169.111 31.464C168.055 30.312 166.615 29.736 164.791 29.736C162.935 29.736 161.463 30.312 160.375 31.464C159.319 32.584 158.791 34.2 158.791 36.312V51H152.071V24.408H158.791V27.72C159.687 26.568 160.823 25.672 162.199 25.032C163.607 24.36 165.143 24.024 166.807 24.024ZM198.83 29.928V42.792C198.83 43.688 199.038 44.344 199.454 44.76C199.902 45.144 200.638 45.336 201.662 45.336H204.782V51H200.558C194.894 51 192.062 48.248 192.062 42.744V29.928H188.894V24.408H192.062V17.832H198.83V24.408H204.782V29.928H198.83ZM232.559 51L223.535 39.672V51H216.815V15.48H223.535V35.688L232.463 24.408H241.199L229.487 37.752L241.295 51H232.559ZM255.454 21.24C254.27 21.24 253.278 20.872 252.478 20.136C251.71 19.368 251.326 18.424 251.326 17.304C251.326 16.184 251.71 15.256 252.478 14.52C253.278 13.752 254.27 13.368 255.454 13.368C256.638 13.368 257.614 13.752 258.382 14.52C259.182 15.256 259.582 16.184 259.582 17.304C259.582 18.424 259.182 19.368 258.382 20.136C257.614 20.872 256.638 21.24 255.454 21.24ZM258.766 24.408V51H252.046V24.408H258.766ZM280.43 29.928V42.792C280.43 43.688 280.638 44.344 281.054 44.76C281.502 45.144 282.238 45.336 283.262 45.336H286.382V51H282.158C276.494 51 273.662 48.248 273.662 42.744V29.928H270.494V24.408H273.662V17.832H280.43V24.408H286.382V29.928H280.43ZM296.687 37.608C296.687 34.92 297.215 32.536 298.271 30.456C299.359 28.376 300.815 26.776 302.639 25.656C304.495 24.536 306.559 23.976 308.831 23.976C310.815 23.976 312.543 24.376 314.015 25.176C315.519 25.976 316.719 26.984 317.615 28.2V24.408H324.383V51H317.615V47.112C316.751 48.36 315.551 49.4 314.015 50.232C312.511 51.032 310.767 51.432 308.783 51.432C306.543 51.432 304.495 50.856 302.639 49.704C300.815 48.552 299.359 46.936 298.271 44.856C297.215 42.744 296.687 40.328 296.687 37.608ZM317.615 37.704C317.615 36.072 317.295 34.68 316.655 33.528C316.015 32.344 315.151 31.448 314.063 30.84C312.975 30.2 311.807 29.88 310.559 29.88C309.311 29.88 308.159 30.184 307.103 30.792C306.047 31.4 305.183 32.296 304.511 33.48C303.871 34.632 303.551 36.008 303.551 37.608C303.551 39.208 303.871 40.616 304.511 41.832C305.183 43.016 306.047 43.928 307.103 44.568C308.191 45.208 309.343 45.528 310.559 45.528C311.807 45.528 312.975 45.224 314.063 44.616C315.151 43.976 316.015 43.08 316.655 41.928C317.295 40.744 317.615 39.336 317.615 37.704Z" fill="white"/>
    <path d="M30.7461 0.146095C20.1211 1.24844 10.8109 7.02579 5.15313 16.0305C-2.86875 28.7938 -1.35469 45.7406 8.79219 56.7774C14.4367 62.9133 21.4227 66.5656 29.8164 67.7609C31.3969 67.9867 36.6164 67.9734 38.25 67.7477C46.5109 66.6055 53.4969 62.9664 59.1281 56.857C63.7633 51.8367 66.725 45.4219 67.7609 38.1836C67.9867 36.6164 67.9867 31.3836 67.7609 29.8164C66.9773 24.2914 65.2242 19.6031 62.3156 15.2203C61.0938 13.3609 59.8586 11.8469 58.132 10.107C52.8328 4.74141 46.2719 1.43438 38.7148 0.318751C37.0812 0.0796889 32.3664 -0.0265612 30.7461 0.146095ZM38.1172 19.8289C40.8 20.5461 43.0844 21.8211 44.8773 23.6141C46.0992 24.8359 46.8562 25.9117 47.6266 27.5453C48.6758 29.7633 49.1672 32.6188 48.9281 34.9961L48.8086 36.1914L38.5953 36.2313L28.382 36.2578L28.4617 36.7227C28.5812 37.4797 29.3117 38.8609 29.9359 39.4852C31.2508 40.8399 33.3891 41.3445 35.5805 40.8399C36.7492 40.5609 37.6523 40.043 38.3695 39.2195L38.9805 38.5156H43.6687H48.357L48.2641 38.8078C47.5336 41.2117 45.568 43.9742 43.4031 45.6477C41.7031 46.9492 39.2859 47.9719 36.8687 48.4102C35.1422 48.7156 31.6359 48.6359 30.1484 48.2375C27.957 47.6531 26.35 46.8961 24.7695 45.7274C21.4758 43.2836 19.5234 39.7375 19.0984 35.4344C18.4875 29.3117 21.5023 23.6274 26.775 20.9977C29.3383 19.7227 31.025 19.3774 34.3984 19.4438C36.5102 19.4836 37.0281 19.5367 38.1172 19.8289Z" fill="white"/>
    <path d="M33.0969 26.8547C31.025 27.0805 29.2586 28.5812 28.6344 30.6398L28.5414 30.9453H34.0531C37.9977 30.9453 39.5781 30.9055 39.5781 30.7992C39.5781 30.7195 39.3656 30.2414 39.1 29.7367C37.9578 27.5719 35.8328 26.5492 33.0969 26.8547Z" fill="white"/>
</svg>