<svg width="68" height="68" viewBox="0 0 68 68" fill="none" xmlns="http://www.w3.org/2000/svg">
    <path d="M30.7461 0.146095C20.1211 1.24844 10.8109 7.02579 5.15313 16.0305C-2.86875 28.7938 -1.35469 45.7406 8.79219 56.7774C14.4367 62.9133 21.4227 66.5656 29.8164 67.7609C31.3969 67.9867 36.6164 67.9734 38.25 67.7477C46.5109 66.6055 53.4969 62.9664 59.1281 56.857C63.7633 51.8367 66.725 45.4219 67.7609 38.1836C67.9867 36.6164 67.9867 31.3836 67.7609 29.8164C66.9773 24.2914 65.2242 19.6031 62.3156 15.2203C61.0938 13.3609 59.8586 11.8469 58.132 10.107C52.8328 4.74141 46.2719 1.43438 38.7148 0.318748C37.0812 0.079689 32.3664 -0.0265579 30.7461 0.146095ZM38.1172 19.8289C40.8 20.5461 43.0844 21.8211 44.8773 23.6141C46.0992 24.8359 46.8562 25.9117 47.6266 27.5453C48.6758 29.7633 49.1672 32.6188 48.9281 34.9961L48.8086 36.1914L38.5953 36.2313L28.382 36.2578L28.4617 36.7227C28.5812 37.4797 29.3117 38.8609 29.9359 39.4852C31.2508 40.8399 33.3891 41.3445 35.5805 40.8399C36.7492 40.5609 37.6523 40.043 38.3695 39.2195L38.9805 38.5156H43.6687H48.357L48.2641 38.8078C47.5336 41.2117 45.568 43.9742 43.4031 45.6477C41.7031 46.9492 39.2859 47.9719 36.8687 48.4102C35.1422 48.7156 31.6359 48.6359 30.1484 48.2375C27.957 47.6531 26.35 46.8961 24.7695 45.7274C21.4758 43.2836 19.5234 39.7375 19.0984 35.4344C18.4875 29.3117 21.5023 23.6273 26.775 20.9977C29.3383 19.7227 31.025 19.3773 34.3984 19.4438C36.5102 19.4836 37.0281 19.5367 38.1172 19.8289Z" fill="white"/>
    <path d="M33.0969 26.8547C31.025 27.0805 29.2586 28.5812 28.6344 30.6398L28.5414 30.9453H34.0531C37.9977 30.9453 39.5781 30.9055 39.5781 30.7992C39.5781 30.7195 39.3656 30.2414 39.1 29.7367C37.9578 27.5719 35.8328 26.5492 33.0969 26.8547Z" fill="white"/>
</svg>